<svg xmlns="http://www.w3.org/2000/svg" data-name="Layer 1" viewBox="0 0 64 64"><path d="M31.5,30h1a.5.5,0,0,0,.5-.5v-3a.5.5,0,0,0-.5-.5h-1a.5.5,0,0,0-.5.5v3A.5.5,0,0,0,31.5,30ZM37,36.5a.49971.49971,0,0,0-.5.5V55a.5.5,0,0,0,1,0V37A.49971.49971,0,0,0,37,36.5Zm8.251,24.206-.76075-3.80371c-.00122-.00628-.00537-.011-.00683-.01715-.08-.89-1.08331-1.63946-2.9834-2.232V44.98047a80.60771,80.60771,0,0,0-.62207-9.98438l-.76367-6.11621A79.743,79.743,0,0,1,39.5,19.01953V2a.47638.47638,0,0,0-.04163-.13708.48034.48034,0,0,0-.03582-.118.48558.48558,0,0,0-.12513-.11975c-.0288-.02325-.04443-.05853-.07867-.07532-.00507-.00238-.01068,0-.01575-.00219-.0047-.00214-.00677-.00751-.01159-.00952a.48268.48268,0,0,0-.19007-.01886.50552.50552,0,0,0-.09057-.009.49613.49613,0,0,0-.26429.13623l-1.12109,1.1211a2.46147,2.46147,0,0,1-1.18549.64563A1.48474,1.48474,0,0,0,34.96289,2.5H29.03711a1.48474,1.48474,0,0,0-1.377.91321,2.46147,2.46147,0,0,1-1.18549-.64563l-1.12109-1.1211a.49865.49865,0,0,0-.26758-.13714c-.02765-.00482-.05512.01007-.08332.00989a.49074.49074,0,0,0-.2077.02472l-.00531.0047-.00836.00115c-.03687.01807-.05426.05561-.08478.08112a.49373.49373,0,0,0-.12726.12189.49436.49436,0,0,0-.02905.11755.47573.47573,0,0,0-.03918.15894L25.33789,16.252c.73486,12.50733.84216,25.1781.33447,37.69477-2.42852.37158-6.00555,1.21472-6.15722,2.942l-.00537.01361L18.749,60.70508A1.49958,1.49958,0,0,0,20.21973,62.5H43.78027a1.49932,1.49932,0,0,0,1.47071-1.794ZM38.5,11v8.01953a80.60771,80.60771,0,0,0,.62207,9.98438l.76367,6.11621A79.743,79.743,0,0,1,40.5,44.98047V57a.501.501,0,0,1-.5.5H36.0752a1.48564,1.48564,0,0,1-1.07911-.459,1.51033,1.51033,0,0,1-.18835-.23841,1.48476,1.48476,0,0,1-.23059-.85888l.67633-18.265L36.9812,23.17371a.491.491,0,0,0,.02832-.23786l.45709-3.83777.00135-.01135.23986-2.01367.00062-.00488.23962-2.01209.00128-.01037.23956-2.01136.00019-.00158.20758-1.743A.48842.48842,0,0,0,38.5,11ZM36.48535,4.41016a3.46644,3.46644,0,0,0,1.74707-.93555L38.333,3.374l-.369,3.09748a2.48929,2.48929,0,0,0-1.52069-.9267Zm-.07971,2.15265A1.49741,1.49741,0,0,1,37.5,8v.17889l-1.1366-.47583Zm-.08173,2.20751L37.5,9.26263v1.003l-1.21014-.57531Zm-.07434,2.00751,1.13709.54053-.109.91449-1.06219-.53473Zm-.07477,2.0185.97718.49194-.10919.91675-.9018-.49488Zm-.07519,2.03173.81561.44764-.10681.8966-.742-.44751Zm-.07544,2.03766.6546.39478-.10351.869-.58344-.39026Zm-.07587,2.04871.49408.33044-.10223.85822-.42468-.30225Zm-.07708,2.08215.33416.23786-.09179.77063-.27124-.229Zm-.07587,2.04761.1767.14917-.26435,2.21918ZM28.67676,3.65332A.49533.49533,0,0,1,29.03711,3.5h5.92578a.49881.49881,0,0,1,.499.51758l-.57306,15.77533a.48711.48711,0,0,0-.01391.38312l-1.2298,33.85461-.00061.00256L33.5918,55.5H30.40839l-.05292-1.4668-.00067-.00274L29.12506,20.17609a.48683.48683,0,0,0-.01391-.38324L28.53809,4.01758A.491.491,0,0,1,28.67676,3.65332Zm-2.0221,50.74481c.49793-11.94409.42865-24.02984-.20294-35.98565l.08032.67425.00135.01135.45709,3.83777a.491.491,0,0,0,.02832.23786l1.72772,14.50506.67633,18.26557A1.49986,1.49986,0,0,1,27.9248,57.5h-.87792a.50058.50058,0,0,1-.5-.52246l.05273-1.16309c.018-.39581.02954-.79321.04626-1.18933l.0094-.22375ZM28.2923,25.41254,28.028,23.19336l.1767-.14917Zm-.13465-3.63648-.27124.229-.09179-.77063.33416-.23786Zm-.07312-1.97522-.42468.30225-.10223-.85822.49408-.33044Zm-.1087-2.93512.03235.87348-.58344.39026-.10351-.869Zm-.04224-1.14093-.742.44751-.10681-.8966.81561-.44764ZM27.859,13.71014l-.9018.49488-.10919-.91675.97718-.49194Zm-.07453-2.012-1.06219.53473-.109-.91449,1.13709-.54053Zm-.10839-2.9278.03405.92L26.5,10.26562v-1.003ZM27.6366,7.70306,26.5,8.17889V8a1.49741,1.49741,0,0,1,1.09436-1.43719ZM25.667,3.374l.10059.10059a3.46644,3.46644,0,0,0,1.74707.93555l.042,1.13464a2.48929,2.48929,0,0,0-1.52069.9267Zm-.03418,51.59082-.084,1.9668A1.49727,1.49727,0,0,0,27.04688,58.5h.87792a2.4786,2.4786,0,0,0,1.79981-.76465,2.50831,2.50831,0,0,0,.3725-.51532c.02771-.04919.05108-.099.07531-.14972a2.4442,2.4442,0,0,0,.17237-.48523c.00708-.02942.02423-.05536.03021-.08508h3.25c.006.02972.02313.05566.03021.08508a2.4442,2.4442,0,0,0,.17237.48523c.02423.05072.0476.10053.07531.14972a2.50831,2.50831,0,0,0,.3725.51532A2.4786,2.4786,0,0,0,36.0752,58.5H40A1.50164,1.50164,0,0,0,41.5,57V55.69824c1.56055.5293,2,1.05371,2,1.30176,0,1.01953-4.47949,2.5-11.5,2.5S20.5,58.01953,20.5,57C20.5,56.51367,21.90625,55.55859,25.63281,54.96484ZM44.167,61.31738a.49877.49877,0,0,1-.38672.18262H20.21973a.4996.4996,0,0,1-.49024-.59863l.52344-2.61524c.07513.05927.16339.11536.2486.17224.036.02411.06732.04926.1051.07288a5.6317,5.6317,0,0,0,.51056.28174c.061.02991.12958.05768.19348.08679.12512.05676.25226.11292.38818.16669.1095.04358.22449.08532.34064.127.08789.03125.17706.06195.26862.092A33.55072,33.55072,0,0,0,32,60.5a33.55072,33.55072,0,0,0,9.69189-1.21454c.09156-.03009.18073-.06079.26862-.092.11615-.04163.23114-.08337.34064-.127.13592-.05377.26306-.10993.38818-.16669.0639-.02911.13251-.05688.19348-.08679a5.6317,5.6317,0,0,0,.51056-.28174c.03778-.02362.06909-.04877.1051-.07288.08521-.05688.17347-.113.2486-.17224l.52344,2.61621A.49834.49834,0,0,1,44.167,61.31738ZM32,49.5a.49971.49971,0,0,0-.5.5v2a.5.5,0,0,0,1,0V50A.49971.49971,0,0,0,32,49.5Zm0-4a.49971.49971,0,0,0-.5.5v2a.5.5,0,0,0,1,0V46A.49971.49971,0,0,0,32,45.5Zm0-14a.49971.49971,0,0,0-.5.5v1a.5.5,0,0,0,1,0V32A.49971.49971,0,0,0,32,31.5Z"/></svg>