<?xml version="1.0" encoding="iso-8859-1"?>
<!-- Generator: Adobe Illustrator 19.0.0, SVG Export Plug-In . SVG Version: 6.00 Build 0)  -->
<svg version="1.1" id="Capa_1" xmlns="http://www.w3.org/2000/svg" xmlns:xlink="http://www.w3.org/1999/xlink" x="0px" y="0px"
	 viewBox="0 0 512 512" style="enable-background:new 0 0 512 512;" xml:space="preserve">
<g>
	<rect x="457" y="214.25" style="fill:#838D92;" width="50" height="168.5"/>
	<circle style="fill:#838D92;" cx="482" cy="159.25" r="30"/>
	<rect x="366" y="214.25" style="fill:#838D92;" width="50" height="168.5"/>
	<circle style="fill:#838D92;" cx="391" cy="159.25" r="30"/>
	<path style="fill:#838D92;" d="M289.219,129.247l-39.958,194.131L216.778,167.29c-4.511-22.043-24.128-38.043-46.645-38.043
		l-15,29.656l15,29.656l32.496,156.15c4.511,22.043,24.128,38.043,46.645,38.043c22.518,0,42.134-16,46.639-38.015l44.354-215.49
		H289.219L289.219,129.247z"/>
</g>
<path style="fill:#9DA8AD;" d="M123.506,167.208l-32.5,156.17L51.048,129.247H0L44.348,344.71
	c4.511,22.043,24.128,38.043,46.645,38.043c22.516,0,42.133-15.999,46.628-37.961l32.513-156.232v-59.312
	C147.617,129.247,128,145.246,123.506,167.208z"/>
<g>
</g>
<g>
</g>
<g>
</g>
<g>
</g>
<g>
</g>
<g>
</g>
<g>
</g>
<g>
</g>
<g>
</g>
<g>
</g>
<g>
</g>
<g>
</g>
<g>
</g>
<g>
</g>
<g>
</g>
</svg>
